<svg width="13" height="13" viewBox="0 0 13 13" fill="none" xmlns="http://www.w3.org/2000/svg">
<path fill-rule="evenodd" clip-rule="evenodd" d="M12.8 6.39113C12.8 6.82395 12.7559 7.25617 12.6694 7.67748C12.585 8.08878 12.46 8.49259 12.2962 8.8786C12.1362 9.25779 11.9378 9.6232 11.7059 9.96397C11.4775 10.3026 11.2143 10.6203 10.9252 10.9098C10.6355 11.1982 10.3168 11.4606 9.97832 11.69C9.63643 11.9203 9.2705 12.1185 8.89108 12.2792C8.50451 12.4421 8.09977 12.5669 7.68882 12.6512C7.26695 12.7379 6.83316 12.7822 6.39971 12.7822C5.96594 12.7822 5.53217 12.7379 5.1109 12.6512C4.69933 12.5669 4.29461 12.4421 3.90834 12.2792C3.52895 12.1185 3.16267 11.9203 2.82078 11.69C2.48233 11.4606 2.16356 11.1982 1.87449 10.9098C1.5851 10.6203 1.32195 10.3026 1.09319 9.96397C0.862555 9.6232 0.663782 9.25777 0.503159 8.8786C0.339381 8.49259 0.214079 8.08876 0.129385 7.67748C0.0437628 7.25617 0 6.82395 0 6.39113C0 5.95798 0.0437377 5.52484 0.12941 5.10445C0.214104 4.69315 0.339406 4.28872 0.503184 3.90333C0.663807 3.52386 0.86258 3.15813 1.09322 2.81734C1.32198 2.47845 1.58513 2.16137 1.87451 1.87145C2.16359 1.58309 2.48235 1.32129 2.82081 1.09224C3.16269 0.860985 3.52898 0.662849 3.90836 0.501808C4.29464 0.338566 4.69933 0.213445 5.11093 0.129823C5.5322 0.0436996 5.96597 0 6.39974 0C6.83318 0 7.26695 0.0436996 7.68885 0.129823C8.0998 0.21347 8.50451 0.338591 8.89111 0.501808C9.2705 0.662824 9.63645 0.860985 9.97834 1.09224C10.3168 1.32129 10.6356 1.58309 10.9253 1.87145C11.2143 2.16137 11.4775 2.47845 11.7059 2.81734C11.9378 3.15813 12.1362 3.52389 12.2962 3.90333C12.46 4.28872 12.585 4.69315 12.6694 5.10445C12.7559 5.52484 12.8 5.95798 12.8 6.39113ZM4.06769 1.45454C2.54353 2.17324 1.40597 3.57566 1.05126 5.26581C1.19535 5.26706 3.47297 5.29578 6.09716 4.59953C5.15119 2.92124 4.14051 1.55161 4.06769 1.45454ZM6.54999 5.43996C3.7358 6.28126 1.03533 6.22073 0.93846 6.217C0.936881 6.27566 0.934076 6.33244 0.934076 6.39112C0.934076 7.79321 1.46379 9.07143 2.33446 10.0379C2.33258 10.0351 3.82831 7.38536 6.77782 6.43294C6.84906 6.40923 6.92159 6.38799 6.99345 6.36741C6.85628 6.05723 6.70655 5.74641 6.54999 5.43996ZM10.0093 2.29494C9.047 1.44766 7.78352 0.933722 6.39969 0.933722C5.9556 0.933722 5.52464 0.987402 5.11181 1.08663C5.19367 1.1965 6.22031 2.55646 7.15503 4.2703C9.21735 3.49827 9.99581 2.3149 10.0093 2.29494ZM7.36602 7.27177C7.35384 7.2758 7.34167 7.27928 7.32977 7.28363C4.10497 8.40622 3.05187 10.6686 3.04047 10.6933C3.96835 11.4138 5.13216 11.8485 6.39973 11.8485C7.15662 11.8485 7.87759 11.6946 8.53356 11.416C8.45262 10.9392 8.13511 9.26775 7.36602 7.27177ZM9.45392 10.9173C10.6812 10.0904 11.5528 8.7772 11.7959 7.25614C11.6834 7.21994 10.1542 6.73655 8.39008 7.01898C9.10699 8.98626 9.39828 10.5884 9.45392 10.9173ZM7.57573 5.08356C7.70258 5.34383 7.82543 5.60873 7.93885 5.87496C7.97919 5.97046 8.01856 6.06409 8.05699 6.15769C9.93458 5.92176 11.7844 6.31871 11.8635 6.33491C11.851 5.04111 11.3875 3.85369 10.6206 2.92407C10.6103 2.9387 9.73365 4.20351 7.57573 5.08356Z" fill="white"/>
</svg>
